<svg width="41" height="40" viewBox="0 0 41 40" fill="none" xmlns="http://www.w3.org/2000/svg">
<path d="M38.1 20.4166C38.1 19.1166 37.9833 17.8666 37.7667 16.6666H20.5V23.7583H30.3667C29.9417 26.05 28.65 27.9916 26.7083 29.2916V33.8916H32.6333C36.1 30.7 38.1 26 38.1 20.4166Z" fill="#4285F4"/>
<path d="M20.5005 38.3332C25.4505 38.3332 29.6005 36.6915 32.6339 33.8915L26.7089 29.2915C25.0672 30.3915 22.9672 31.0415 20.5005 31.0415C15.7255 31.0415 11.6839 27.8165 10.2422 23.4832H4.11719V28.2332C7.13385 34.2248 13.3339 38.3332 20.5005 38.3332Z" fill="#34A853"/>
<path d="M10.2422 23.4835C9.87557 22.3835 9.66724 21.2085 9.66724 20.0002C9.66724 18.7918 9.87557 17.6168 10.2422 16.5168V11.7668H4.11724C2.8339 14.3216 2.16611 17.1412 2.16724 20.0002C2.16724 22.9585 2.87557 25.7585 4.11724 28.2335L10.2422 23.4835Z" fill="#FBBC05"/>
<path d="M20.5005 8.95842C23.1922 8.95842 25.6089 9.88342 27.5089 11.7001L32.7672 6.44175C29.5922 3.48341 25.4422 1.66675 20.5005 1.66675C13.3339 1.66675 7.13385 5.77508 4.11719 11.7667L10.2422 16.5167C11.6839 12.1834 15.7255 8.95842 20.5005 8.95842Z" fill="#EA4335"/>
</svg>
